<svg width="900" height="1100" viewBox="0 0 900 1100" fill="none" xmlns="http://www.w3.org/2000/svg">
  <rect width="900" height="1100" rx="36" fill="#F6E1BF"/>
  <circle cx="140" cy="165" r="180" fill="#D8F1DF" fill-opacity="0.72"/>
  <circle cx="760" cy="930" r="230" fill="#FFFFFF" fill-opacity="0.5"/>
  <ellipse cx="450" cy="690" rx="330" ry="168" fill="#0A3222"/>
  <ellipse cx="450" cy="660" rx="286" ry="132" fill="#FBFAF5"/>
  <circle cx="450" cy="660" r="124" fill="#FFFFFF"/>
  <circle cx="450" cy="660" r="86" fill="#D8F1DF"/>
  <path d="M402 655c36-38 92-49 140-27 6 51-35 96-87 96-31 0-59-16-75-41 4-10 12-20 22-28z" fill="#0B5136"/>
  <path d="M528 612c47 18 82 63 88 116-36 31-89 34-128 7 39-20 57-67 40-123z" fill="#F2C174"/>
  <rect x="170" y="362" width="246" height="338" rx="42" fill="#101512"/>
  <rect x="192" y="388" width="202" height="286" rx="28" fill="#FBFAF5"/>
  <rect x="226" y="424" width="95" height="14" rx="7" fill="#0B5136"/>
  <rect x="226" y="464" width="132" height="16" rx="8" fill="#F2C174"/>
  <rect x="226" y="520" width="134" height="78" rx="16" fill="#D8F1DF"/>
  <rect x="248" y="548" width="88" height="12" rx="6" fill="#0B5136"/>
  <rect x="226" y="620" width="134" height="32" rx="16" fill="#0A3222"/>
  <rect x="604" y="368" width="90" height="248" rx="45" stroke="#0A3222" stroke-width="18"/>
  <path d="M652 608v158" stroke="#0A3222" stroke-width="18" stroke-linecap="round"/>
  <path d="M646 760h-42" stroke="#0A3222" stroke-width="18" stroke-linecap="round"/>
  <path d="M734 456v304" stroke="#0A3222" stroke-width="18" stroke-linecap="round"/>
  <rect x="320" y="822" width="260" height="58" rx="29" fill="#FFFFFF"/>
  <circle cx="363" cy="851" r="14" fill="#23C779"/>
  <rect x="392" y="842" width="124" height="18" rx="9" fill="#0B5136"/>
</svg>
